# xmcd CD database file
#
# Track frame offsets:
#	182
#	16020
#	32482
#	47752
#	57915
#	69717
#	86942
#	101050
#	110595
#	123545
#
# Disc length: 1836 seconds
#
# Revision: 0
# Processed by: cddbd v1.4PL0 Copyright (c) Steve Scherf et al.
# Submitted via: CDex 1.40Beta9
#
DISCID=86072a0a
DTITLE=Max Mace - Country Memories
DYEAR=1900
DGENRE=Country
TTITLE0=Peace In The Valley
TTITLE1=Where Could I Go?
TTITLE2=Down The Sawdust Trail
TTITLE3=Turn Your Radio On
TTITLE4=Precious Lord Take My Hand
TTITLE5=Rodeo Preacher
TTITLE6=Just A Closer Walk With Thee 
TTITLE7=Goodbye World Goodbye
TTITLE8=Suppertime
TTITLE9=No One Ever Cared For Me Like Jesus
EXTD=ID3G: 2
EXTT0=
EXTT1=
EXTT2=
EXTT3=
EXTT4=
EXTT5=
EXTT6=
EXTT7=
EXTT8=
EXTT9=
PLAYORDER=
